<?xml version="1.0" encoding="UTF-8"?>
<svg version="1.1" xmlns="http://www.w3.org/2000/svg" width="500" height="500">
<path d="M0 0 C165 0 330 0 500 0 C500 165 500 330 500 500 C335 500 170 500 0 500 C0 335 0 170 0 0 Z " fill="#3E3E3E" transform="translate(0,0)"/>
<path d="M0 0 C0.2475 1.299375 0.2475 1.299375 0.5 2.625 C2.55197422 7.241942 5.49849757 9.7448953 10 12 C12.74801309 11.88529093 12.74801309 11.88529093 15 10 C15.52851563 9.62746094 16.05703125 9.25492188 16.6015625 8.87109375 C19.76824615 6.47732104 21.30671824 4.87907654 22 1 C32.41399058 2.84764349 40.27349086 6.77739363 48 14 C47.53952805 19.1239751 44.9210675 22.3275701 41.9375 26.3125 C41.46505859 26.95767578 40.99261719 27.60285156 40.50585938 28.26757812 C39.34490296 29.85070051 38.17347664 31.42613569 37 33 C33.05390481 32.44126086 30.55675198 31.29135624 27.3125 29 C24.25134986 26.83977108 24.25134986 26.83977108 21 25 C21 20.71 21 16.42 21 12 C19.989375 12.495 18.97875 12.99 17.9375 13.5 C13.55846803 15.3502952 9.61487654 15.89038849 5.00390625 14.3203125 C3.31031804 13.60471185 1.65114765 12.80872538 0 12 C0 15.63 0 19.26 0 23 C-2.24609375 23.94401042 -4.4921875 24.88802083 -6.73828125 25.83203125 C-9.04284617 27.02212609 -10.44093376 27.93275711 -12 30 C-12.90079899 34.33357354 -12.54448197 37.99815317 -10.4375 41.875 C-6.22724293 45.54548052 -1.47231814 47.17086089 4 48 C3.50886719 48.34675781 3.01773438 48.69351563 2.51171875 49.05078125 C0.22254233 52.00245834 0.7115623 54.52009699 0.8125 58.1875 C0.83957031 59.45980469 0.86664063 60.73210937 0.89453125 62.04296875 C0.94673828 63.50669922 0.94673828 63.50669922 1 65 C2.32 65.66 3.64 66.32 5 67 C4.35675781 66.62488281 3.71351563 66.24976563 3.05078125 65.86328125 C1 64 1 64 0.29296875 61.29296875 C0.01703694 53.16830991 0.01703694 53.16830991 2.84375 49.80859375 C5.25854978 48.07396257 7.13249481 46.81147206 10 46 C12.59375 46.78125 12.59375 46.78125 15 48 C16.093125 48.45375 17.18625 48.9075 18.3125 49.375 C21 52 21 52 21.37890625 54.89453125 C21.37528048 57.95105844 21.24881135 60.95436477 21 64 C21 64.33 21 64.66 21 65 C21.33 61.04 21.66 57.08 22 53 C30.76286352 53.5714911 38.87850027 57.73937528 45 64 C52.30620324 74.15140739 54.0983238 83.62376595 53 96 C50.54771233 106.87096597 45.64768067 115.37852575 36.25 121.625 C22.43302039 129.88402165 3.88465819 129.89637551 -11.4140625 126.16796875 C-23.4005635 122.26386875 -33.86803033 116.69795451 -41 106 C-40.625 103.8125 -40.625 103.8125 -40 102 C-31.3690205 109.11389522 -31.3690205 109.11389522 -29 114 C-29.66 112.68 -30.32 111.36 -31 110 C-26.26876193 104.32251432 -26.26876193 104.32251432 -22.11425781 103.73193359 C-18.51449059 103.56921811 -14.94819345 103.70705669 -11.3515625 103.88671875 C-9.69253906 103.94279297 -9.69253906 103.94279297 -8 104 C-7.67 103.67 -7.34 103.34 -7 103 C-11.95 103 -16.9 103 -22 103 C-22 99.37 -22 95.74 -22 92 C-20.3603125 93.3303125 -20.3603125 93.3303125 -18.6875 94.6875 C-12.76401158 99.14331482 -6.18185098 102.20453726 1 104 C1 94.1 1 84.2 1 74 C2.65 74.33 4.3 74.66 6 75 C10.75110434 75.93325264 13.63883509 76.24666071 18 74 C17.484375 74.165 16.96875 74.33 16.4375 74.5 C12.59813189 75.28756269 8.63302272 75.83458304 5.05859375 74.0078125 C2.72746187 72.86657526 1.14207057 72.77015066 -1.4375 72.6875 C-12.18051896 71.76712319 -22.43908944 67.1068447 -29.7109375 59.12109375 C-37.24086372 49.73623449 -38.13338713 39.96253092 -37.29296875 28.26904297 C-36.18755962 19.70764923 -31.11457971 13.01750553 -24.57421875 7.6875 C-17.09435659 2.78416092 -8.93094454 -0.20297601 0 0 Z " fill="#BAB8BF" transform="translate(267,192)"/>
<path d="M0 0 C0.99 0 1.98 0 3 0 C3.0825 1.2375 3.165 2.475 3.25 3.75 C3.64995469 7.27624183 3.64995469 7.27624183 6 9.9375 C8.69789574 12.71970498 8.8349848 14.96075623 9.109375 18.74609375 C8.89892107 23.08294797 6.99377197 26.00622803 4 29 C3.60235737 30.98821313 3.26224651 32.98944339 3 35 C2.360625 34.835 1.72125 34.67 1.0625 34.5 C-2.97586652 33.84067485 -6.91807258 33.91996221 -11 34 C-10.45730469 34.51949219 -9.91460937 35.03898437 -9.35546875 35.57421875 C-2.24956063 42.50087873 -2.24956063 42.50087873 0 47 C-8.02332397 47.90041311 -15.92970447 48.11547323 -24 48 C-22.59023295 44.96147295 -20.91129772 42.4060405 -18.875 39.75 C-18.33617187 39.04359375 -17.79734375 38.3371875 -17.2421875 37.609375 C-16.83226562 37.07828125 -16.42234375 36.5471875 -16 36 C-16.99 35.505 -16.99 35.505 -18 35 C-18 34.34 -18 33.68 -18 33 C-19.98 33 -21.96 33 -24 33 C-23.01 34.98 -22.02 36.96 -21 39 C-22.55337788 41.90726934 -23.59850641 43.83166113 -26 46 C-29.46948354 46.87607236 -32.76168944 46.66585601 -36.3125 46.4375 C-37.24384766 46.40591797 -38.17519531 46.37433594 -39.13476562 46.34179688 C-41.42642852 46.25953205 -43.71157286 46.14471638 -46 46 C-49 40.375 -49 40.375 -49 37 C-44.65732797 32.32222414 -44.65732797 32.32222414 -41.02099609 31.61523438 C-38.88908663 31.54489091 -36.81577939 31.61056768 -34.6875 31.75 C-32.12411358 31.85898366 -29.56537741 31.94082174 -27 32 C-26.67 31.67 -26.34 31.34 -26 31 C-30.95 31 -35.9 31 -41 31 C-41 27.37 -41 23.74 -41 20 C-39.906875 20.886875 -38.81375 21.77375 -37.6875 22.6875 C-31.76401158 27.14331482 -25.18185098 30.20453726 -18 32 C-18 22.1 -18 12.2 -18 2 C-15.525 2.495 -15.525 2.495 -13 3 C-8.30678876 3.92188078 -5.26228091 4.38186286 -1 2 C-0.67 1.34 -0.34 0.68 0 0 Z " fill="#6A8AD3" transform="translate(286,264)"/>
<path d="M0 0 C3.46656165 1.54069407 6.29468349 3.32509332 9 6 C9.56762695 8.84082031 9.56762695 8.84082031 9.48828125 12.078125 C9.47216797 13.23828125 9.45605469 14.3984375 9.43945312 15.59375 C9.39755859 16.8003125 9.35566406 18.006875 9.3125 19.25 C9.28994141 20.47203125 9.26738281 21.6940625 9.24414062 22.953125 C9.18521758 25.96998502 9.10299265 28.98437515 9 32 C8.36191406 32.12375 7.72382813 32.2475 7.06640625 32.375 C6.38449219 32.58125 5.70257813 32.7875 5 33 C4.30062468 34.31647119 3.63270867 35.65022151 3 37 C0 38 0 38 -1.79345703 37.2421875 C-4.99207658 34.86466301 -6.73406911 33.11270077 -7.67871094 29.16015625 C-7.94444898 25.74795566 -7.95465214 22.42124895 -7.875 19 C-7.90207031 17.83726562 -7.92914063 16.67453125 -7.95703125 15.4765625 C-7.89059092 7.18101267 -7.89059092 7.18101267 -5.37988281 3.8515625 C-3.65230001 2.36554479 -1.97698948 1.1271349 0 0 Z " fill="#3B98B8" transform="translate(235,262)"/>
<path d="M0 0 C0.495 14.355 0.495 14.355 1 29 C-5 28 -5 28 -7.375 27.25 C-11.32118973 26.87417241 -14.42758737 28.4309751 -18 30 C-18.64217298 20.32153574 -19.16831537 10.70618661 -19 1 C-18.28714844 1.17917969 -17.57429688 1.35835937 -16.83984375 1.54296875 C-9.43550626 3.18726981 -6.29219461 0 0 0 Z " fill="#6E79D5" transform="translate(287,205)"/>
<path d="M0 0 C1.093125 0.45375 2.18625 0.9075 3.3125 1.375 C6.5288625 4.51656337 6.50510404 5.56536159 6.6875 9.9375 C6.47244294 14.0435894 6.22751009 15.66542634 3.875 19.125 C-1.6744186 22.74418605 -1.6744186 22.74418605 -5 23 C-8.83611922 21.35235535 -11.47055278 19.32395307 -14 16 C-15.30376851 11.70556951 -15.35364743 8.285565 -14 4 C-9.76338555 -0.94715775 -5.99296569 -3.03539821 0 0 Z " fill="#7EA1E9" transform="translate(282,240)"/>
<path d="M0 0 C0.99 0 1.98 0 3 0 C3.12375 1.85625 3.12375 1.85625 3.25 3.75 C3.64995469 7.27624183 3.64995469 7.27624183 6 9.9375 C8.69789574 12.71970498 8.8349848 14.96075623 9.109375 18.74609375 C8.89892107 23.08294797 6.99377197 26.00622803 4 29 C3.60235737 30.98821313 3.26224651 32.98944339 3 35 C2.360625 34.835 1.72125 34.67 1.0625 34.5 C-2.97586652 33.84067485 -6.91807258 33.91996221 -11 34 C-10.18595703 34.77923828 -10.18595703 34.77923828 -9.35546875 35.57421875 C-2.24956063 42.50087873 -2.24956063 42.50087873 0 47 C-8.02332397 47.90041311 -15.92970447 48.11547323 -24 48 C-22.12315261 43.85961808 -19.40600567 40.6315205 -16.55859375 37.12109375 C-14.8266441 34.99146649 -14.8266441 34.99146649 -14 32 C-11.32223171 30.51235095 -9.62632262 29.93576178 -6.5625 30.25 C-3.68544077 31.09206612 -0.8439217 32.0520261 2 33 C2 22.44 2 11.88 2 1 C1.34 0.67 0.68 0.34 0 0 Z " fill="#5E5EAC" transform="translate(286,264)"/>
<path d="M0 0 C0.70253906 -0.01933594 1.40507812 -0.03867187 2.12890625 -0.05859375 C5.97697017 -0.02222264 7.57384798 0.33420008 10.375 3.0390625 C11.875 5.625 11.875 5.625 11.75 7.625 C11.316875 8.615 11.316875 8.615 10.875 9.625 C10.215 11.275 9.555 12.925 8.875 14.625 C2.275 14.625 -4.325 14.625 -11.125 14.625 C-14.125 8.625 -14.125 8.625 -14.125 5.625 C-9.63731444 0.85595484 -6.43571101 -0.17910142 0 0 Z " fill="#7997DD" transform="translate(251.125,295.375)"/>
<path d="M0 0 C6.27 0 12.54 0 19 0 C19.1953125 9.1796875 19.1953125 9.1796875 19 12 C17 14 17 14 13.84765625 14.265625 C12.59855469 14.26046875 11.34945313 14.2553125 10.0625 14.25 C8.81597656 14.25515625 7.56945312 14.2603125 6.28515625 14.265625 C3 14 3 14 0 12 C-0.41820365 7.97409284 -0.12945079 4.05612469 0 0 Z " fill="#3A9ABA" transform="translate(268,185)"/>
<path d="M0 0 C2.28062828 3.42094242 2.21925007 4.68187222 2.125 8.6875 C2.10695312 9.68136719 2.08890625 10.67523438 2.0703125 11.69921875 C2.04710937 12.45847656 2.02390625 13.21773438 2 14 C1.36191406 14.12375 0.72382813 14.2475 0.06640625 14.375 C-0.61550781 14.58125 -1.29742187 14.7875 -2 15 C-2.69937532 16.31647119 -3.36729133 17.65022151 -4 19 C-4.99 19.33 -5.98 19.66 -7 20 C-8.82421875 18.78515625 -8.82421875 18.78515625 -10.6875 17.0625 C-11.31011719 16.49660156 -11.93273437 15.93070312 -12.57421875 15.34765625 C-13.04472656 14.90292969 -13.51523438 14.45820313 -14 14 C-13.4043565 10.45790665 -12.05508605 8.54170292 -9.6875 5.875 C-9.09324219 5.19179688 -8.49898437 4.50859375 -7.88671875 3.8046875 C-5.47207147 1.49502489 -3.40016081 0 0 0 Z " fill="#317EBB" transform="translate(242,280)"/>
<path d="M0 0 C0.99 0 1.98 0 3 0 C3.12375 1.85625 3.12375 1.85625 3.25 3.75 C3.64995469 7.27624183 3.64995469 7.27624183 6 9.9375 C8.69789574 12.71970498 8.8349848 14.96075623 9.109375 18.74609375 C8.89892107 23.08294797 6.99377197 26.00622803 4 29 C3.60235737 30.98821313 3.26224651 32.98944339 3 35 C2.360625 34.835 1.72125 34.67 1.0625 34.5 C-6.85172704 33.20171511 -6.85172704 33.20171511 -14.0625 36 C-14.701875 36.66 -15.34125 37.32 -16 38 C-14.66390614 32.41269841 -14.66390614 32.41269841 -11.6875 30.5625 C-6.60170907 29.49803213 -2.93100674 31.35633109 2 33 C2 22.44 2 11.88 2 1 C1.34 0.67 0.68 0.34 0 0 Z " fill="#3B4147" transform="translate(286,264)"/>
<path d="M0 0 C0 3.63 0 7.26 0 11 C-5.94 11 -11.88 11 -18 11 C-19.60725635 7.78548731 -19.05748185 4.56387464 -19 1 C-18.28714844 1.17917969 -17.57429688 1.35835937 -16.83984375 1.54296875 C-9.43550626 3.18726981 -6.29219461 0 0 0 Z " fill="#73B9E1" transform="translate(287,205)"/>
<path d="M0 0 C0.33 0.66 0.66 1.32 1 2 C0.67 2.66 0.34 3.32 0 4 C-0.54917877 9.87453193 -0.54917877 9.87453193 2 15 C2.66 15.66 3.32 16.32 4 17 C2.700625 16.4740625 2.700625 16.4740625 1.375 15.9375 C-2.37453336 14.89596296 -4.29123704 14.8952621 -8 16 C-10.82865928 17.9445527 -10.82865928 17.9445527 -13 20 C-12.835 19.505 -12.67 19.01 -12.5 18.5 C-11.7942693 14.97134649 -11.4572151 11.55982302 -12 8 C-13.83656989 5.03268602 -13.83656989 5.03268602 -16 3 C-14.6696875 3.5259375 -14.6696875 3.5259375 -13.3125 4.0625 C-9.81839663 5.05139718 -8.37221786 5.21053975 -5 4 C-2.2299003 2.03490091 -2.2299003 2.03490091 0 0 Z " fill="#1DA4BB" transform="translate(456,240)"/>
<path d="M0 0 C1 3 1 3 0.1875 6.875 C-0.2169492 8.96748053 -0.2169492 8.96748053 0 11 C1.77184679 13.2859011 3.53488965 14.39013202 6 16 C3 17 3 17 -0.3125 16.3125 C-4.90436831 15.92335862 -6.48628745 17.1718899 -10 20 C-9.896875 18.783125 -9.79375 17.56625 -9.6875 16.3125 C-9.66127576 12.60832546 -9.87195726 12.15102477 -12.4375 9.125 C-13.283125 8.42375 -14.12875 7.7225 -15 7 C-15.33 6.34 -15.66 5.68 -16 5 C-15.33613281 5.13019531 -14.67226563 5.26039063 -13.98828125 5.39453125 C-11.25805028 5.82100529 -8.76373481 6.11409914 -6 6 C-2.89138486 3.81145577 -2.89138486 3.81145577 -1 1 C-0.67 0.67 -0.34 0.34 0 0 Z " fill="#1BA4BC" transform="translate(446,184)"/>
<path d="M0 0 C0.680625 0.33 1.36125 0.66 2.0625 1 C6.35097604 2.45990674 10.19975091 2.73856373 14.4375 1 C14.953125 0.67 15.46875 0.34 16 0 C15.67 0.680625 15.34 1.36125 15 2.0625 C13.41328754 6.72346785 13.4992606 11.31018938 15 16 C14.484375 15.67 13.96875 15.34 13.4375 15 C9.07932998 13.21203281 4.44508573 13.57757257 0 15 C0.33 14.484375 0.66 13.96875 1 13.4375 C2.64926094 9.41742646 2.64926094 5.58257354 1 1.5625 C0.67 1.046875 0.34 0.53125 0 0 Z " fill="#17A3BB" transform="translate(347,206)"/>
<path d="M0 0 C0.33 0 0.66 0 1 0 C1.66 3.63 2.32 7.26 3 11 C5.31 11.66 7.62 12.32 10 13 C7 15 7 15 4.4375 16.1875 C1.11796296 18.6558737 0.82080419 21.04521616 0 25 C-0.66 24.67 -1.32 24.34 -2 24 C-2.04125 22.906875 -2.0825 21.81375 -2.125 20.6875 C-2.5787907 17.00374783 -2.5787907 17.00374783 -4.83984375 15.6484375 C-6.86682317 14.65810309 -8.88253648 13.77656407 -11 13 C-8 11 -8 11 -4.9375 9.875 C-1.68076096 7.7962304 -1.49419977 7.35808466 -0.625 3.8125 C-0.41875 2.554375 -0.2125 1.29625 0 0 Z " fill="#1AA3BB" transform="translate(350,284)"/>
<path d="M0 0 C0.515625 0.309375 1.03125 0.61875 1.5625 0.9375 C5.7893231 2.77996135 9.5057333 3.47689363 13.9375 2.0625 C14.618125 1.711875 15.29875 1.36125 16 1 C15.4740625 1.99 15.4740625 1.99 14.9375 3 C13.66584978 7.0692807 14.32196645 9.79619199 15 14 C15 14.99 15 15.98 15 17 C14.195625 16.2575 14.195625 16.2575 13.375 15.5 C10.31754465 13.56897557 8.561827 13.55477163 5 14 C2.65738392 15.37926773 2.65738392 15.37926773 1 17 C0.34 16.67 -0.32 16.34 -1 16 C-0.319375 15.319375 0.36125 14.63875 1.0625 13.9375 C3.34768264 11.09017503 3.34768264 11.09017503 2.875 7.4375 C2.16342769 4.64203737 1.47275566 2.45459277 0 0 Z " fill="#17A5BE" transform="translate(386,177)"/>
<path d="M0 0 C0 3 0 3 -2 6 C-2.50707684 10.66510697 -1.69148306 13.18706566 1 17 C0.484375 16.835 -0.03125 16.67 -0.5625 16.5 C-5.12249434 15.56461655 -8.7383753 15.35576611 -12.9375 17.5 C-13.618125 17.995 -14.29875 18.49 -15 19 C-14.67 18.29875 -14.34 17.5975 -14 16.875 C-12.59763031 12.84318715 -12.32588231 9.60102951 -14 5.625 C-14.33 5.08875 -14.66 4.5525 -15 4 C-13.80375 4.2475 -12.6075 4.495 -11.375 4.75 C-7.70774595 5.23201918 -7.03797311 5.02071261 -3.5625 3.125 C-1.73176721 1.61681624 -1.73176721 1.61681624 0 0 Z " fill="#1AA7BF" transform="translate(414,279)"/>
<path d="M0 0 C1.175625 0.7734375 1.175625 0.7734375 2.375 1.5625 C3.468125 2.26375 4.56125 2.965 5.6875 3.6875 C7.0178125 4.615625 7.0178125 4.615625 8.375 5.5625 C8.045 6.5525 7.715 7.5425 7.375 8.5625 C6.75753906 8.55089844 6.14007813 8.53929687 5.50390625 8.52734375 C-0.30025544 8.46550337 -5.86838088 8.81971044 -11.625 9.5625 C-11.625 7.375 -11.625 7.375 -10.625 4.5625 C-7.45636146 1.6899959 -4.36125572 -0.72687595 0 0 Z " fill="#8185ED" transform="translate(279.625,238.4375)"/>
<path d="M0 0 C0.99 0 1.98 0 3 0 C5 0 7 0 9 0 C8.07392708 3.70429168 6.81120807 5.42370341 3.625 7.375 C0 9 0 9 -2.1875 9 C-4.56135105 7.69028908 -6.14972577 5.96964677 -8 4 C-8.99 3.34 -9.98 2.68 -11 2 C-11 1.34 -11 0.68 -11 0 C-7.17137587 -1.37830469 -3.94443145 -0.64545242 0 0 Z " fill="#6BADCE" transform="translate(279,254)"/>
<path d="M0 0 C6.6 0 13.2 0 20 0 C21.58549223 8.45595855 21.58549223 8.45595855 21 13 C18.14961867 16.48952652 14.87632253 18.74505667 11 21 C6.408335 19.32603695 3.62803418 17.20616974 0 14 C2.10680343 14 4.21362716 14.01285017 6.3203125 14.03515625 C7.57585937 14.04417969 8.83140625 14.05320313 10.125 14.0625 C12.01605469 14.07990234 12.01605469 14.07990234 13.9453125 14.09765625 C16.87539961 14.3526509 16.87539961 14.3526509 18 13 C18.23427778 10.98405418 18.41336124 8.961526 18.5625 6.9375 C18.706875 4.978125 18.85125 3.01875 19 1 C12.73 1 6.46 1 0 1 C0 0.67 0 0.34 0 0 Z " fill="#2F6382" transform="translate(268,184)"/>
<path d="M0 0 C-0.01160156 0.62648438 -0.02320313 1.25296875 -0.03515625 1.8984375 C-0.04417969 2.71570313 -0.05320312 3.53296875 -0.0625 4.375 C-0.07410156 5.18710937 -0.08570313 5.99921875 -0.09765625 6.8359375 C-0.14466334 9.04937142 -0.14466334 9.04937142 1 11 C-3.29 11 -7.58 11 -12 11 C-10.01638258 7.03276517 -8.85992723 5.82094052 -5.4375 3.25 C-4.63183594 2.63640625 -3.82617188 2.0228125 -2.99609375 1.390625 C-1 0 -1 0 0 0 Z " fill="#8367A9" transform="translate(274,301)"/>
<path d="M0 0 C4.70133003 3.42639308 9.01437117 6.76526936 13 11 C8.71 11 4.42 11 0 11 C0 7.37 0 3.74 0 0 Z " fill="#A6C0C0" transform="translate(245,284)"/>
<path d="M0 0 C0.33 0.99 0.66 1.98 1 3 C-1.86336371 5.86336371 -3.95228346 5.30016187 -7.9375 5.3125 C-9.18402344 5.32925781 -10.43054688 5.34601563 -11.71484375 5.36328125 C-15 5 -15 5 -18 2 C-9.09 1.01 -9.09 1.01 0 0 Z " fill="#3A89C0" transform="translate(286,194)"/>
<path d="M0 0 C5.09359755 3.48639444 8.87133378 6.55380325 12 12 C12.5775 12.94875 13.155 13.8975 13.75 14.875 C14.36875 15.926875 14.36875 15.926875 15 17 C11.0532555 15.67064278 8.69284433 14.05426964 5.8125 11.0625 C5.13832031 10.37285156 4.46414062 9.68320312 3.76953125 8.97265625 C0.85376486 5.7221882 0 4.48957773 0 0 Z " fill="#B995BF" transform="translate(226,294)"/>
<path d="M0 0 C0.33 0 0.66 0 1 0 C1.04898437 1.27617187 1.09796875 2.55234375 1.1484375 3.8671875 C1.22346191 5.53648072 1.29900988 7.20575046 1.375 8.875 C1.4059375 9.71675781 1.436875 10.55851562 1.46875 11.42578125 C1.50742187 12.23144531 1.54609375 13.03710938 1.5859375 13.8671875 C1.6173584 14.61081543 1.6487793 15.35444336 1.68115234 16.12060547 C1.85419551 18.24010974 1.85419551 18.24010974 4 20 C2.68 20 1.36 20 0 20 C0 19.34 0 18.68 0 18 C-1.98 18 -3.96 18 -6 18 C-5.01 19.98 -4.02 21.96 -3 24 C-4.65 25.65 -6.3 27.3 -8 29 C-7.649375 28.4225 -7.29875 27.845 -6.9375 27.25 C-5.81120221 24.54688531 -6.09233725 23.72298825 -7 21 C-7.0825 20.13375 -7.165 19.2675 -7.25 18.375 C-7.4975 17.59125 -7.745 16.8075 -8 16 C-10.47636012 14.62533375 -10.47636012 14.62533375 -13 14 C-11 13 -11 13 -8.3984375 13.77734375 C-5.59895833 14.8515625 -2.79947917 15.92578125 0 17 C0 11.39 0 5.78 0 0 Z " fill="#437E8A" transform="translate(268,279)"/>
<path d="M0 0 C6.27 0 12.54 0 19 0 C18.67 0.99 18.34 1.98 18 3 C12.06 3.33 6.12 3.66 0 4 C0 2.68 0 1.36 0 0 Z " fill="#3E9EC8" transform="translate(268,192)"/>
<path d="M0 0 C6.27 0 12.54 0 19 0 C19 0.66 19 1.32 19 2 C16.20849551 2.33474144 13.41681356 2.66785498 10.625 3 C9.43390625 3.14308594 9.43390625 3.14308594 8.21875 3.2890625 C2.2265625 4 2.2265625 4 0 4 C0 2.68 0 1.36 0 0 Z " fill="#4BB2C2" transform="translate(268,185)"/>
<path d="M0 0 C4.56048012 3.61251516 8.01665146 6.98797445 11 12 C8.36 12 5.72 12 3 12 C3.66 11.67 4.32 11.34 5 11 C4.54625 9.9275 4.0925 8.855 3.625 7.75 C3.36976563 7.14671875 3.11453125 6.5434375 2.8515625 5.921875 C1.96193599 3.91409408 0.99581175 1.95698656 0 0 Z " fill="#36446E" transform="translate(275,299)"/>
<path d="M0 0 C0 0.99 0 1.98 0 3 C-5.61 3 -11.22 3 -17 3 C-16.67 2.34 -16.34 1.68 -16 1 C-13.671875 0.5859375 -13.671875 0.5859375 -10.75 0.375 C-9.79609375 0.30023438 -8.8421875 0.22546875 -7.859375 0.1484375 C-5.23259147 0.01207442 -2.62962569 -0.02879152 0 0 Z " fill="#42A4BD" transform="translate(287,187)"/>
<path d="M0 0 C0.66 0 1.32 0 2 0 C0.59155282 3.21524305 -1.10344786 5.32183868 -3.625 7.75 C-4.57246094 8.67039063 -4.57246094 8.67039063 -5.5390625 9.609375 C-6.02117187 10.06828125 -6.50328125 10.5271875 -7 11 C-7.33 10.34 -7.66 9.68 -8 9 C-6.85459775 7.68712379 -5.70866567 6.37470979 -4.5625 5.0625 C-3.92441406 4.33160156 -3.28632813 3.60070312 -2.62890625 2.84765625 C-1.77458541 1.87860647 -0.91348825 0.91348825 0 0 Z " fill="#80C0C0" transform="translate(242,200)"/>
<path d="M0 0 C3.54741874 1.000554 6.16009903 2.68600662 9 5 C7.56163249 4.88541307 6.12429034 4.75790884 4.6875 4.625 C3.88699219 4.55539063 3.08648437 4.48578125 2.26171875 4.4140625 C0 4 0 4 -3 2 C-2.01 1.34 -1.02 0.68 0 0 Z " fill="#725CD1" transform="translate(277,238)"/>
<path d="M0 0 C0.33 0 0.66 0 1 0 C1 2.97 1 5.94 1 9 C-0.32 8.67 -1.64 8.34 -3 8 C-1.125 1.125 -1.125 1.125 0 0 Z " fill="#7C6CCA" transform="translate(273,301)"/>
<path d="M0 0 C0 0.33 0 0.66 0 1 C-1.5778125 1.37125 -1.5778125 1.37125 -3.1875 1.75 C-6.8133541 2.76700786 -9.19910772 4.45373429 -12 7 C-10.66390614 1.41269841 -10.66390614 1.41269841 -7.6875 -0.4375 C-4.75007107 -1.05231071 -2.86463946 -0.81846842 0 0 Z " fill="#263741" transform="translate(282,295)"/>
<path d="M0 0 C0 1.32 0 2.64 0 4 C-2.31 3.67 -4.62 3.34 -7 3 C-4.74624683 0.74624683 -3.20799182 0 0 0 Z " fill="#8B65EC" transform="translate(287,266)"/>
</svg>
