<?xml version="1.0" encoding="UTF-8"?>
<svg version="1.1" xmlns="http://www.w3.org/2000/svg" width="500" height="500">
<path d="M0 0 C165 0 330 0 500 0 C500 165 500 330 500 500 C335 500 170 500 0 500 C0 335 0 170 0 0 Z " fill="#3D3D3D" transform="translate(0,0)"/>
<path d="M0 0 C0 4.33333333 0 8.66666667 0 13 C0.33 11.35 0.66 9.7 1 8 C9.90509319 9.63182336 16.75790549 12.5342683 24 18 C24.92619141 18.69609375 24.92619141 18.69609375 25.87109375 19.40625 C27 21 27 21 27.00390625 23.23046875 C25.60674029 27.08490713 23.38152866 30.04819212 20.9375 33.3125 C20.46505859 33.95767578 19.99261719 34.60285156 19.50585938 35.26757812 C18.34490296 36.85070051 17.17347664 38.42613569 16 40 C12.05390481 39.44126086 9.55675198 38.29135624 6.3125 36 C3.25134986 33.83977108 3.25134986 33.83977108 0 32 C0 28.04 0 24.08 0 20 C-1.7325 20.7734375 -1.7325 20.7734375 -3.5 21.5625 C-9.08989381 23.65994688 -13.37145451 22.93094319 -19 20.9375 C-19.66 20.628125 -20.32 20.31875 -21 20 C-21 23.3 -21 26.6 -21 30 C-21.69867188 30.32613281 -22.39734375 30.65226562 -23.1171875 30.98828125 C-24.02726562 31.42527344 -24.93734375 31.86226562 -25.875 32.3125 C-26.77992188 32.74175781 -27.68484375 33.17101562 -28.6171875 33.61328125 C-31.26449476 34.9199388 -31.26449476 34.9199388 -33 38 C-33.3296789 41.56053213 -33.23396925 44.28138016 -32.125 47.6875 C-29.30960716 50.75130986 -26.34924983 51.7314122 -22.47265625 53.10546875 C-20 54 -20 54 -17.87109375 55.17578125 C-15.21714105 56.34485018 -13.70196012 55.26541054 -11.109375 54.28515625 C-8.15335194 53.88554572 -6.77148312 54.917194 -4.25 56.4375 C-3.45078125 56.91058594 -2.6515625 57.38367188 -1.828125 57.87109375 C-1.22484375 58.24363281 -0.6215625 58.61617187 0 59 C0.05386629 61.12472576 0.09273071 63.24983652 0.125 65.375 C0.14820313 66.55835938 0.17140625 67.74171875 0.1953125 68.9609375 C0 72 0 72 -2 74 C-1.34 73.67 -0.68 73.34 0 73 C0.46954261 69.95418731 0.46954261 69.95418731 0.625 66.4375 C0.69976562 65.23996094 0.77453125 64.04242188 0.8515625 62.80859375 C0.90054688 61.88175781 0.94953125 60.95492187 1 60 C10.08836187 60.41310736 18.42682853 64.81505017 24.5625 71.4375 C32.11422264 80.75964725 32.8306737 91.25983417 32.2265625 102.87890625 C31.36398812 110.95438713 26.76783159 119.3338042 21 125 C7.64718183 135.43947602 -7.98108657 136.33761949 -24.14453125 134.59765625 C-37.71624035 132.75635995 -51.38298393 126.97817584 -60 116 C-60.66 115.01 -61.32 114.02 -62 113 C-61.67 112.01 -61.34 111.02 -61 110 C-60.67 110 -60.34 110 -60 110 C-60.0314209 109.24380371 -60.0628418 108.48760742 -60.09521484 107.70849609 C-60.22035256 104.26430478 -60.29810581 100.82059207 -60.375 97.375 C-60.42527344 96.18519531 -60.47554688 94.99539063 -60.52734375 93.76953125 C-60.69319689 83.87362723 -60.69319689 83.87362723 -57.2265625 80.1015625 C-54 78 -54 78 -51.99755859 78.26708984 C-48.44996418 79.56871273 -45.94742295 80.74395844 -44 84 C-43.7109375 87.45703125 -43.7109375 87.45703125 -43.6875 91.4375 C-43.68618735 96.67914868 -43.68618735 96.67914868 -41.19921875 101.171875 C-38.86190429 102.69603973 -36.54891132 103.87036885 -34 105 C-32.78513579 105.73937433 -31.57606545 106.48841532 -30.375 107.25 C-26.53208343 109.38445749 -26.53208343 109.38445749 -20 111 C-20 101.1 -20 91.2 -20 81 C-17.36 81.99 -14.72 82.98 -12 84 C-8.6342681 83.80435934 -8.6342681 83.80435934 -6 83 C-7.32 83 -8.64 83 -10 83 C-13.40664477 82.39394196 -16.76005704 81.55363861 -20.125 80.75 C-21.02476562 80.54503906 -21.92453125 80.34007812 -22.8515625 80.12890625 C-35.03619178 77.24030879 -46.98524078 72.91818409 -54.00390625 61.84375 C-59.07820087 52.45133016 -59.52469951 41.37417563 -57.37890625 30.99609375 C-54.25244017 22.1169301 -48.21375617 15.8404647 -39.9375 11.5625 C-33.53635791 8.65581787 -28.14264328 6.65157838 -21 7 C-20.67 5.02 -20.34 3.04 -20 1 C-13.28837062 0.11978631 -6.76594019 -0.11381955 0 0 Z " fill="#BCBAC1" transform="translate(383,191)"/>
<path d="M0 0 C3.54742405 1.30336528 6.05098652 2.47771511 7.9987793 5.734375 C8.2878418 9.19140625 8.2878418 9.19140625 8.3112793 13.171875 C8.31259194 18.41352368 8.31259194 18.41352368 10.79956055 22.90625 C13.13687501 24.43041473 15.44986798 25.60474385 17.9987793 26.734375 C19.21364351 27.47374933 20.42271385 28.22279032 21.6237793 28.984375 C25.46669586 31.11883249 25.46669586 31.11883249 31.9987793 32.734375 C31.9987793 22.834375 31.9987793 12.934375 31.9987793 2.734375 C34.6387793 3.724375 37.2787793 4.714375 39.9987793 5.734375 C43.19832884 5.59088153 43.19832884 5.59088153 45.9987793 4.734375 C46.7825293 4.54875 47.5662793 4.363125 48.3737793 4.171875 C49.1781543 3.9553125 49.1781543 3.9553125 49.9987793 3.734375 C49.9987793 3.074375 49.9987793 2.414375 49.9987793 1.734375 C50.9887793 1.734375 51.9787793 1.734375 52.9987793 1.734375 C53.0606543 2.765625 53.1225293 3.796875 53.1862793 4.859375 C53.69143809 8.86997958 53.69143809 8.86997958 56.5612793 11.609375 C59.40350084 15.25324877 59.73559851 17.0773463 59.50268555 21.5703125 C58.69679567 25.03126592 56.32240843 27.12737646 53.9987793 29.734375 C53.11872593 33.46134718 53.11872593 33.46134718 52.9987793 36.734375 C51.4828418 36.239375 51.4828418 36.239375 49.9362793 35.734375 C43.87602861 34.02382037 38.86077252 34.44676789 32.9987793 36.734375 C33.1534668 37.78625 33.1534668 37.78625 33.3112793 38.859375 C32.95275415 42.15780632 31.86077887 43.95649323 29.69042969 46.44238281 C26.35984985 48.98610175 22.59446613 48.63691535 18.5612793 48.546875 C17.72790039 48.57845703 16.89452148 48.61003906 16.03588867 48.64257812 C12.35985463 48.62223643 9.95029694 48.52926818 7.06469727 46.11865234 C5.57446515 44.38522414 4.24340659 42.65002417 2.9987793 40.734375 C4.4987793 37.734375 4.4987793 37.734375 5.9987793 34.734375 C5.1634668 35.7553125 5.1634668 35.7553125 4.3112793 36.796875 C1.9987793 38.734375 1.9987793 38.734375 -0.4387207 38.859375 C-4.07864058 37.2613614 -6.22157642 35.23689661 -8.0012207 31.734375 C-8.76727285 27.38979174 -8.74484211 23.13624508 -8.6887207 18.734375 C-8.71643555 17.57164062 -8.74415039 16.40890625 -8.77270508 15.2109375 C-8.74556022 5.72109445 -8.74556022 5.72109445 -5.20825195 1.859375 C-2.0012207 -0.265625 -2.0012207 -0.265625 0 0 Z " fill="#3178B1" transform="translate(331.001220703125,269.265625)"/>
<path d="M0 0 C0 4.33333333 0 8.66666667 0 13 C0.33 11.35 0.66 9.7 1 8 C9.90509319 9.63182336 16.75790549 12.5342683 24 18 C24.92619141 18.69609375 24.92619141 18.69609375 25.87109375 19.40625 C27 21 27 21 27.00390625 23.23046875 C25.60674029 27.08490713 23.38152866 30.04819212 20.9375 33.3125 C20.46505859 33.95767578 19.99261719 34.60285156 19.50585938 35.26757812 C18.34490296 36.85070051 17.17347664 38.42613569 16 40 C12.05390481 39.44126086 9.55675198 38.29135624 6.3125 36 C3.25134986 33.83977108 3.25134986 33.83977108 0 32 C0 28.04 0 24.08 0 20 C-4.455 21.485 -4.455 21.485 -9 23 C-9 22.34 -9 21.68 -9 21 C-9.515625 20.773125 -10.03125 20.54625 -10.5625 20.3125 C-11.366875 19.879375 -12.17125 19.44625 -13 19 C-13.60199219 18.73960937 -14.20398438 18.47921875 -14.82421875 18.2109375 C-17.11568663 16.99315944 -18.4401924 16.09693143 -20 14 C-20.61266812 9.6100997 -20.40618875 5.40360184 -20 1 C-13.28837062 0.11978631 -6.76594019 -0.11381955 0 0 Z " fill="#B8B8C1" transform="translate(383,191)"/>
<path d="M0 0 C0.99 0 1.98 0 3 0 C3.061875 1.03125 3.12375 2.0625 3.1875 3.125 C3.69265879 7.13560458 3.69265879 7.13560458 6.5625 9.875 C9.40472154 13.51887377 9.73681921 15.3429713 9.50390625 19.8359375 C8.69801637 23.29689092 6.32362914 25.39300146 4 28 C3.11994663 31.72697218 3.11994663 31.72697218 3 35 C2.05125 34.67 1.1025 34.34 0.125 34 C-5.435257 32.40000768 -11.50034788 32.16678263 -17 34 C-17.614687 22.99051677 -18.18115526 12.03034265 -18 1 C-16.80375 1.515625 -15.6075 2.03125 -14.375 2.5625 C-10.51838241 4.01384196 -8.04025124 4.1018867 -4 3 C-3.21625 2.814375 -2.4325 2.62875 -1.625 2.4375 C-1.08875 2.293125 -0.5525 2.14875 0 2 C0 1.34 0 0.68 0 0 Z " fill="#6C8DD6" transform="translate(381,271)"/>
<path d="M0 0 C0.7609241 9.70178229 1.13500337 19.26475712 1 29 C0.29875 28.82082031 -0.4025 28.64164063 -1.125 28.45703125 C-7.90137998 26.93786998 -11.74544669 26.93172857 -18 30 C-18.83779436 20.29056184 -19.12276617 10.73944972 -19 1 C-18.28714844 1.17917969 -17.57429688 1.35835937 -16.83984375 1.54296875 C-9.43550626 3.18726981 -6.29219461 0 0 0 Z " fill="#6F7DD6" transform="translate(382,212)"/>
<path d="M0 0 C0.886875 0.495 1.77375 0.99 2.6875 1.5 C3.55117188 1.89703125 4.41484375 2.2940625 5.3046875 2.703125 C7.6875 4.5 7.6875 4.5 8.45703125 7.390625 C8.56936351 16.17296501 8.56936351 16.17296501 6.0625 19.9453125 C3.97013623 21.90294072 2.31815805 23.35224344 -0.3125 24.5 C-4.51133707 24.11291971 -8.14805399 22.73801589 -11.70703125 20.5078125 C-15.19530329 16.14535063 -13.82529534 9.76327439 -13.3125 4.5 C-4.51449577 -0.68143332 -4.51449577 -0.68143332 0 0 Z " fill="#8199EA" transform="translate(375.3125,245.5)"/>
<path d="M0 0 C1.0317309 11.63563185 1.0317309 11.63563185 -2.625 16.1875 C-4.69621655 18.15225215 -6.2389674 19.10909381 -8.875 20.3125 C-12.90851927 19.90914807 -15.27339366 18.75460962 -18.4296875 16.234375 C-21.57886878 11.75345039 -20.55734032 6.2173247 -20 1 C-13.28837062 0.11978631 -6.76594019 -0.11381955 0 0 Z " fill="#3EA3C4" transform="translate(383,191)"/>
<path d="M0 0 C1.19786133 -0.05510742 1.19786133 -0.05510742 2.41992188 -0.11132812 C8.18688399 -0.1543295 8.18688399 -0.1543295 10.74267578 1.93798828 C12.12890625 3.59765625 12.12890625 3.59765625 14.0625 6.5625 C12.7425 9.2025 11.4225 11.8425 10.0625 14.5625 C7.0178906 14.75241128 3.98518634 14.89051567 0.9375 15 C0.0815625 15.05865234 -0.774375 15.11730469 -1.65625 15.17773438 C-7.97107687 15.34774894 -7.97107687 15.34774894 -10.89355469 12.97314453 C-12.38559351 11.23243258 -13.70686209 9.49498123 -14.9375 7.5625 C-11.52920968 0.41108597 -7.43454471 0.01791457 0 0 Z " fill="#7894D9" transform="translate(348.9375,302.4375)"/>
<path d="M0 0 C3.51832632 1.30896502 6.07329872 2.50581391 8.00146484 5.74462891 C8.52436056 10.45069039 8.34602904 15.02920414 8.00146484 19.74462891 C6.68146484 19.08462891 5.36146484 18.42462891 4.00146484 17.74462891 C2.70596585 18.84429666 1.41520413 19.94954692 0.12646484 21.05712891 C-0.95248047 21.97945313 -0.95248047 21.97945313 -2.05322266 22.92041016 C-4.19032847 24.7858613 -4.19032847 24.7858613 -5.99853516 27.74462891 C-6.65853516 27.74462891 -7.31853516 27.74462891 -7.99853516 27.74462891 C-8.17374496 24.20359377 -8.2796826 20.66368007 -8.37353516 17.11962891 C-8.44894531 15.62109375 -8.44894531 15.62109375 -8.52587891 14.09228516 C-8.62363671 9.17180928 -8.66778255 5.71719656 -5.22509766 1.97119141 C-1.99853516 -0.25537109 -1.99853516 -0.25537109 0 0 Z " fill="#3D9BBB" transform="translate(330.99853515625,269.25537109375)"/>
<path d="M0 0 C3.83333593 1.5438607 5.98308208 3.92456277 8.6875 7 C9.47511719 7.886875 10.26273437 8.77375 11.07421875 9.6875 C13 12 13 12 14 14 C6.08 14 -1.84 14 -10 14 C-8.2062572 10.4125144 -6.3896203 7.83243778 -3.875 4.75 C-3.15054687 3.85796875 -2.42609375 2.9659375 -1.6796875 2.046875 C-0.84824219 1.03367187 -0.84824219 1.03367187 0 0 Z " fill="#4C4C80" transform="translate(372,304)"/>
<path d="M0 0 C0.99 0 1.98 0 3 0 C3.061875 1.03125 3.12375 2.0625 3.1875 3.125 C3.69265879 7.13560458 3.69265879 7.13560458 6.5625 9.875 C9.40472154 13.51887377 9.73681921 15.3429713 9.50390625 19.8359375 C8.69801637 23.29689092 6.32362914 25.39300146 4 28 C3.67 30.31 3.34 32.62 3 35 C-1.62 34.01 -6.24 33.02 -11 32 C-10.34 31.34 -9.68 30.68 -9 30 C-6.90625 30.20703125 -6.90625 30.20703125 -4.5 30.8125 C-3.30890625 31.10060547 -3.30890625 31.10060547 -2.09375 31.39453125 C0 32 0 32 2 33 C2 22.44 2 11.88 2 1 C1.34 0.67 0.68 0.34 0 0 Z " fill="#41484E" transform="translate(381,271)"/>
<path d="M0 0 C0 3.3 0 6.6 0 10 C-5.94 10 -11.88 10 -18 10 C-19.4783226 7.04335481 -19.06032783 4.25770263 -19 1 C-18.28714844 1.17917969 -17.57429688 1.35835937 -16.83984375 1.54296875 C-9.43550626 3.18726981 -6.29219461 0 0 0 Z " fill="#71C2E0" transform="translate(382,212)"/>
<path d="M0 0 C6.6 0 13.2 0 20 0 C19 5 19 5 15.8125 7.375 C13.18307738 8.69507748 11.96547192 9 8.9375 9 C5.41673957 7.80144326 2.8597324 6.38311033 0 4 C0 2.68 0 1.36 0 0 Z " fill="#76B8E3" transform="translate(363,259)"/>
<path d="M0 0 C2.8016646 1.62887477 5.17995421 3.51698107 7.6875 5.5625 C4.70840586 5.89649254 1.72923024 6.2297256 -1.25 6.5625 C-2.52520508 6.70558594 -2.52520508 6.70558594 -3.82617188 6.8515625 C-4.63505859 6.94179687 -5.44394531 7.03203125 -6.27734375 7.125 C-7.0262085 7.20878906 -7.77507324 7.29257813 -8.54663086 7.37890625 C-10.3125 7.5625 -10.3125 7.5625 -11.3125 7.5625 C-11.3125 10.8625 -11.3125 14.1625 -11.3125 17.5625 C-7.27864253 20.33577701 -4.83115367 21.97508739 0.125 21.3125 C1.300625 21.065 2.47625 20.8175 3.6875 20.5625 C2 22.625 2 22.625 -0.3125 24.5625 C-2.5625 24.625 -2.5625 24.625 -5.3125 23.5625 C-6.00472656 23.33046875 -6.69695312 23.0984375 -7.41015625 22.859375 C-10.04174056 21.68978197 -11.50194901 20.82679004 -13.3125 18.5625 C-14.01553679 13.82907676 -13.77532755 9.31291057 -13.3125 4.5625 C-4.54595056 -0.60040856 -4.54595056 -0.60040856 0 0 Z " fill="#646AAC" transform="translate(375.3125,245.4375)"/>
<path d="M0 0 C5.75 3.75 5.75 3.75 8 6 C12.39629018 5.76236269 14.77258856 3.85856441 18 1 C16.66666667 3.66666667 15.33333333 6.33333333 14 9 C16.31 11.97 18.62 14.94 21 18 C20.34 18.33 19.68 18.66 19 19 C11.20339463 15.46515881 4.73578111 10.10367166 0 3 C0 2.01 0 1.02 0 0 Z " fill="#BA98BE" transform="translate(321,301)"/>
<path d="M0 0 C1.340625 0.9075 2.68125 1.815 4.0625 2.75 C7.95684709 5.35033936 11.90359572 7.73390402 16 10 C16 10.66 16 11.32 16 12 C10.72 12 5.44 12 0 12 C0 8.04 0 4.08 0 0 Z " fill="#A1BFBF" transform="translate(340,290)"/>
<path d="M0 0 C0.33 0 0.66 0 1 0 C1.33 6.27 1.66 12.54 2 19 C3.65 18.67 5.3 18.34 7 18 C3.25 21 3.25 21 1 21 C1.12375 22.1446875 1.12375 22.1446875 1.25 23.3125 C1 26 1 26 -1 27.8125 C-1.66 28.204375 -2.32 28.59625 -3 29 C-2.34 27.35 -1.68 25.7 -1 24 C-2.34530806 21.32141884 -2.34530806 21.32141884 -5 19 C-8.2642853 18.36209041 -11.43960423 18.52858144 -14.75 18.6875 C-15.63816406 18.71005859 -16.52632813 18.73261719 -17.44140625 18.75585938 C-19.62932812 18.81467448 -21.81379671 18.89678732 -24 19 C-24 18.34 -24 17.68 -24 17 C-20.56296699 16.80317731 -17.12536573 16.61914848 -13.6875 16.4375 C-12.22280273 16.35338867 -12.22280273 16.35338867 -10.72851562 16.26757812 C-9.32182617 16.19506836 -9.32182617 16.19506836 -7.88671875 16.12109375 C-7.02264404 16.0739624 -6.15856934 16.02683105 -5.26831055 15.97827148 C-3 16 -3 16 0 17 C0 11.39 0 5.78 0 0 Z " fill="#476879" transform="translate(363,285)"/>
<path d="M0 0 C0.66 0.66 1.32 1.32 2 2 C-0.00554621 5.00831932 -1.39723506 6.73971514 -4.75 8.1875 C-9.58340522 7.9086497 -12.53913704 5.25004897 -16 2 C-16 1.67 -16 1.34 -16 1 C-13.37549914 0.77880061 -10.75129514 0.57253331 -8.125 0.375 C-7.37863281 0.31054688 -6.63226563 0.24609375 -5.86328125 0.1796875 C-3.9129953 0.03912635 -1.95530533 0.01240151 0 0 Z " fill="#3277AF" transform="translate(379,203)"/>
<path d="M0 0 C0 1.32 0 2.64 0 4 C-6.38226945 4.82351864 -12.56744599 5.12086218 -19 5 C-19 3.68 -19 2.36 -19 1 C-12.61773055 0.17648136 -6.43255401 -0.12086218 0 0 Z " fill="#4BAFC0" transform="translate(382,191)"/>
<path d="M0 0 C0.33 0 0.66 0 1 0 C1 3.96 1 7.92 1 12 C-3.18730624 13.04682656 -6.97856931 13.11155353 -11.25 13.0625 C-11.99507813 13.05798828 -12.74015625 13.05347656 -13.5078125 13.04882812 C-15.3385764 13.03709246 -17.16929873 13.0191585 -19 13 C-18.67 12.01 -18.34 11.02 -18 10 C-12.06 10 -6.12 10 0 10 C0 6.7 0 3.4 0 0 Z " fill="#3D8EBB" transform="translate(382,191)"/>
<path d="M0 0 C0 2.97 0 5.94 0 9 C-2.97 9 -5.94 9 -9 9 C-3.2 0 -3.2 0 0 0 Z " fill="#8A6ECD" transform="translate(373,308)"/>
<path d="M0 0 C0.99 0.33 1.98 0.66 3 1 C2.01 2.485 2.01 2.485 1 4 C0.92094936 6.33199388 0.91201231 8.66832622 1 11 C-4.75 10.125 -4.75 10.125 -7 9 C-7 6.69 -7 4.38 -7 2 C-4.69 2 -2.38 2 0 2 C0 1.34 0 0.68 0 0 Z " fill="#44C0D3" transform="translate(398,204)"/>
<path d="M0 0 C2.98062146 0.28045888 5.95896972 0.57377505 8.9375 0.875 C10.21270508 0.99294922 10.21270508 0.99294922 11.51367188 1.11328125 C12.72700195 1.23896484 12.72700195 1.23896484 13.96484375 1.3671875 C15.08814087 1.47716064 15.08814087 1.47716064 16.23413086 1.58935547 C17.10823608 1.79262451 17.10823608 1.79262451 18 2 C18.33 2.66 18.66 3.32 19 4 C13.06 4 7.12 4 1 4 C0.67 2.68 0.34 1.36 0 0 Z " fill="#74A3E2" transform="translate(363,218)"/>
<path d="M0 0 C1.32 0.66 2.64 1.32 4 2 C4 2.99 4 3.98 4 5 C3.67 4.67 3.34 4.34 3 4 C2.67 6.97 2.34 9.94 2 13 C1.67 13 1.34 13 1 13 C1 10.03 1 7.06 1 4 C-1.31 5.65 -3.62 7.3 -6 9 C-4.47291037 5.56404834 -2.40072955 2.88087546 0 0 Z " fill="#565083" transform="translate(372,304)"/>
<path d="M0 0 C1.21236328 0.23396484 1.21236328 0.23396484 2.44921875 0.47265625 C3.51785156 0.66730469 4.58648437 0.86195313 5.6875 1.0625 C7.27111328 1.35833984 7.27111328 1.35833984 8.88671875 1.66015625 C11.91159216 1.99034946 14.07980511 1.77474558 17 1 C13.78230622 3.84642142 11.30505213 4.83117443 7 5 C4.50088561 4.21054133 2.35832242 3.17916121 0 2 C0 1.34 0 0.68 0 0 Z " fill="#402F58" transform="translate(364,271)"/>
<path d="M0 0 C3.63 0 7.26 0 11 0 C10.67 0.99 10.34 1.98 10 3 C7.03 3 4.06 3 1 3 C0.67 2.01 0.34 1.02 0 0 Z " fill="#479DC7" transform="translate(363,199)"/>
<path d="M0 0 C0.66 0.33 1.32 0.66 2 1 C-2.26108374 5.01759324 -2.26108374 5.01759324 -5.625 4.9375 C-8.11454559 3.95478464 -9.19934473 2.92035201 -11 1 C-10.28972656 1.01160156 -9.57945312 1.02320313 -8.84765625 1.03515625 C-7.92855469 1.04417969 -7.00945312 1.05320313 -6.0625 1.0625 C-4.68771484 1.07990234 -4.68771484 1.07990234 -3.28515625 1.09765625 C-1.03406673 1.25949049 -1.03406673 1.25949049 0 0 Z " fill="#29496C" transform="translate(378,206)"/>
<path d="M0 0 C-1.40844718 3.21524305 -3.10344786 5.32183868 -5.625 7.75 C-6.57246094 8.67039063 -6.57246094 8.67039063 -7.5390625 9.609375 C-8.02117187 10.06828125 -8.50328125 10.5271875 -9 11 C-9 7.25983417 -8.0658409 6.54723807 -5.625 3.8125 C-4.99851562 3.09707031 -4.37203125 2.38164062 -3.7265625 1.64453125 C-2 0 -2 0 0 0 Z " fill="#77C0C0" transform="translate(339,206)"/>
<path d="M0 0 C3.1875 0.6875 3.1875 0.6875 6 2 C6.33 2.66 6.66 3.32 7 4 C3.37 3.67 -0.26 3.34 -4 3 C-2.68 2.01 -1.36 1.02 0 0 Z " fill="#7461DA" transform="translate(372,245)"/>
<path d="M0 0 C2.02054804 1.64169528 4.02043058 3.30911778 6 5 C6 5.33 6 5.66 6 6 C4.02 6 2.04 6 0 6 C0 4.02 0 2.04 0 0 Z " fill="#4B64BC" transform="translate(377,311)"/>
<path d="M0 0 C0 1.98 0 3.96 0 6 C-0.33 5.34 -0.66 4.68 -1 4 C-3.52733235 3.34444881 -3.52733235 3.34444881 -6 3 C-2.25 0 -2.25 0 0 0 Z " fill="#8862E6" transform="translate(383,272)"/>
</svg>
